# xmcd
#
# Track frame offsets: 
#        150
#        15787
#        32729
#        51081
#        65952
#        79895
#        100336
#        117626
#        134833
#        150592
#        168261
#        185664
#
# Disc length: 2745 seconds
#
# Revision: 0
# Processed by: cddbd v1.5.2PL0 Copyright (c) Steve Scherf et al.
# Submitted via: ExactAudioCopy v1.0b3
#
DISCID=a50ab70c
DTITLE=Karina - Tequila y Rosas
DYEAR=2016
DGENRE=Pop
TTITLE0=Mi Vida Eres Tú
TTITLE1=Por Qué Será
TTITLE2=El Cariño Es Como Una Flor
TTITLE3=Cuando Yo Amo
TTITLE4=Volvamos A Vivir
TTITLE5=Si Pudiera
TTITLE6=Sólo Tú
TTITLE7=Yo Sé
TTITLE8=Vuelvo A Empezar
TTITLE9=Será
TTITLE10=Llorar
TTITLE11=Llorar Remix
EXTD=
EXTT0=
EXTT1=
EXTT2=
EXTT3=
EXTT4=
EXTT5=
EXTT6=
EXTT7=
EXTT8=
EXTT9=
EXTT10=
EXTT11=
PLAYORDER=
